<?xml version="1.0" encoding="utf-8"?>
<?xml-stylesheet type="text/xsl" href="rss1.xsl"?>
<rss version="2.0" xmlns:atom="http://www.w3.org/2005/Atom" xmlns:content="http://purl.org/rss/1.0/modules/content/" xmlns:dc="http://purl.org/dc/elements/1.1/" xmlns:media="http://search.yahoo.com/mrss/">
<channel>
 <title>Getty</title>
 <link>http://www.gettyimg.com/</link>
 <atom:link href="http://www.gettyimg.com/" rel="self" type="application/rss+xml" />

 
                <item>
                <title><![CDATA[【HD Live Performances】WEB-RiP - Capital FM's Summertime Ball 2023 Highlights [720p HDTV Quality]]]></title>
                <link><![CDATA[https://sharemania.us/threads/capital-fms-summertime-ball-2023-highlights-720p-hdtv-quality.222860/]]></link>
                <description><![CDATA[<article>
<blockquote class="messageText SelectQuoteContainer ugc baseHtml">
ripped from itvx !<br>
<br>
if you want to see more like this, please reply down below, like and follow &lt;3 <br>
<br>
<img src="https://i.ibb.co/p2VqZQr/Summertime-Ball-Highlights-ITV1-Highlights-Capital-FM-720p-Jamesies-mp4-thumbs-2023-06-17-22-17-36.jpg" class="bbCodeImage LbImage" alt="[​IMG]" data-url="https://i.ibb.co/p2VqZQr/Summertime-Ball-Highlights-ITV1-Highlights-Capital-FM-720p-Jamesies-mp4-thumbs-2023-06-17-22-17-36.jpg" style=""> <br>
<br>
<div class="bbCodeBlock bbCodeVfcHH HiddenContent">
<div class="attribution type">Hidden Content:</div>
<blockquote>You must reply before you can see the hidden data contained here.</blockquote>
</div>
<div class="messageTextEndMarker">&nbsp;</div>
</blockquote>
</article>]]></description>
                <author><![CDATA[jamesies]]></author>
                </item>

                
                <item>
                <title><![CDATA[【PRORES HD】Max Cooper - Solace In Structure [Master ProRes 1080p | PCM 16-bit 48 kHz]]]></title>
                <link><![CDATA[https://sharemania.us/threads/max-cooper-solace-in-structure-master-prores-1080p-pcm-16-bit-48-khz.222859/]]></link>
                <description><![CDATA[<article>
<blockquote class="messageText SelectQuoteContainer ugc baseHtml">
<b><img src="https://images2.imgbox.com/13/ca/aOg0yLyJ_o.jpg" class="bbCodeImage LbImage" alt="[​IMG]" data-url="https://images2.imgbox.com/13/ca/aOg0yLyJ_o.jpg" style=""> <br>
<br>
Genre: <span style="color: #0059b3">Electronic</span><br>
Style: <span style="color: #0059b3">Experimental, Techno</span><br>
Year: <span style="color: #0059b3">2022</span><br>
Video Format: <span style="color: #0059b3">ProRes 422</span><br>
Audio Format: <span style="color: #0059b3">PCM 16-bit 48 kHz</span></b><br>
<br>
"<b>Solace In Structure</b>" is a track by London-based electronica and techno producer Max Cooper. It's the tenth track from his album Unspoken Words, released in 2022.<br>
<br>
Max Cooper explains the motivations behind "Solace In Structure": <i>"I find that abstract structures can be a beautiful place to escape to. That’s why I put a lot of binaural elements in my stereo mixes, and pursue Atmos and full spatial mixes whenever I can. I want to create a surreal space that surrounds you as the listener, and takes you away from everyday experience."<br>
<br>
‘Solace In Structure’ a visual project from my album ‘Unspoken Words’ where I was trying to express feelings and ideas outside of language. This chapter uses many layers of sounds, constrained to a precise rhythmic grid. It was designed for escapism amongst dense rigid complexity. It may not be for everyone, but I had a lot of fun making it.<br>
<br>
For the visual treatment, I chatted about the idea with Italian artist Donato Sansone, and in collaboration with Marco Holland and Silvia Gariglio, they embarked on a painstaking hand drawn mapping of geometric structures to the elements of the music. I love how the visual interpretation plays on the rigidity and precision of the musical approach, as well as the humanised notation and thought surrounding the structures. For me, it’s a perfect interpretation of the music in the visual realm."</i><br>
<br>
Donny Sansone:<br>
<i>"I have always loved electronic music and when I was contacted by Max to make a video for one of his music pieces I did not hesitate 2 seconds to give my availability to the project. I wanted to create something I had in mind for a while and with max I saw the opportunity was to build a video using traditional animation techniques and therefore a lot of what you can see was drawn entirely by hand, frame by frame, on elements then built in computer graphics and partly also with 3D after-effects. In short, it is a form of manual rotoscope on animated elements in CGI and the result was quite interesting in my opinion. To create this video I called upon the collaboration of two great artists named Marco holland and Silvia Gariglio. Marco was fundamental in the contribution in CGI, in the construction of the elements and animations in computer graphics and Silvia in the manual colouring of some scenes of the video."</i><br>
<br>
Full Project Breakdown on Behance:<br>
<a href="https://www.behance.net/gallery/129098191/Solance-in-Structure" target="_blank" class="externalLink" rel="nofollow">https://www.behance.net/gallery/129098191/Solance-in-Structure</a><br>
<br>
Directed by: Donato Sansone (milkyeyes)<br>
Assistent Director: Marco Holland<br>
3d Animation: Marco Holland<br>
2d Animation: Donato Sansone<br>
Assistant Animation: Silvia Gariglio<br>
<br>
<div class="ToggleTriggerAnchor bbCodeSpoilerContainer">
<button type="button" class="button bbCodeSpoilerButton ToggleTrigger Tooltip JsOnly" data-target="> .SpoilerTarget"><span>Spoiler: <span class="SpoilerTitle">Media Info</span></span></button>
<div class="SpoilerTarget bbCodeSpoilerText">
<div class="bbCodeBlock bbCodeCode">
<div class="type">Code:</div>
<pre>General
Complete name                  : Max Cooper - Solace In Structure.mov
Format                         : MPEG-4
Format profile                 : QuickTime
Codec ID                       : qt   2005.03 (qt  )
File size                      : 1.39 GiB
Duration                       : 3 min 18 s
Overall bit rate mode          : Variable
Overall bit rate               : 60.3 Mb/s
Frame rate                     : 25.000 FPS
Encoded date                   : 2021-10-07 09:06:54 UTC
Tagged date                    : 2021-10-07 12:18:43 UTC
Writing library                : Apple QuickTime
TIM                            : 00:00:02:02
TSC                            : 25
TSZ                            : 1

Video
ID                             : 1
Format                         : ProRes
Format version                 : Version 0
Format profile                 : 422
Codec ID                       : apcn
Duration                       : 3 min 18 s
Bit rate mode                  : Variable
Bit rate                       : 58.7 Mb/s
Width                          : 1 920 pixels
Height                         : 1 080 pixels
Display aspect ratio           : 16:9
Frame rate mode                : Constant
Frame rate                     : 25.000 FPS
Color space                    : YUV
Chroma subsampling             : 4:2:2
Scan type                      : Progressive
Bits/(Pixel*Frame)             : 1.133
Stream size                    : 1.36 GiB (97%)
Writing library                : Apple
Language                       : English
Encoded date                   : 2021-10-07 09:06:54 UTC
Tagged date                    : 2021-10-07 09:06:54 UTC
Color primaries                : BT.709
Transfer characteristics       : BT.709
Matrix coefficients            : BT.709

Audio
ID                             : 2
Format                         : PCM
Format settings                : Little / Signed
Codec ID                       : sowt
Duration                       : 3 min 18 s
Bit rate mode                  : Constant
Bit rate                       : 1 536 kb/s
Channel(s)                     : 2 channels
Channel layout                 : L R
Sampling rate                  : 48.0 kHz
Bit depth                      : 16 bits
Stream size                    : 36.4 MiB (3%)
Language                       : English
Encoded date                   : 2021-10-07 09:06:54 UTC
Tagged date                    : 2021-10-07 09:06:54 UTC

Other
ID                             : 3
Type                           : Time code
Format                         : QuickTime TC
Duration                       : 3 min 18 s
Frame rate                     : 25.000 FPS
Time code of first frame       : 00:00:02:02
Time code of last frame        : 00:03:20:16
Time code, stripped            : Yes
Language                       : English
Encoded date                   : 2021-10-07 09:06:54 UTC
Tagged date                    : 2021-10-07 09:06:54 UTC
</pre>
</div></div>
</div><br>
<div class="bbCodeBlock bbCodeVfcHH HiddenContent">
<div class="attribution type">Hidden Content:</div>
<blockquote>You must reply before you can see the hidden data contained here.</blockquote>
</div>
<div class="messageTextEndMarker">&nbsp;</div>
</blockquote>
</article>]]></description>
                <author><![CDATA[ADHDerby]]></author>
                </item>

                
                <item>
                <title><![CDATA[【Albums (lossless)】FLAC - Emma Bunton - Free Me (2004) [FLAC 44.1kHz/16bit]]]></title>
                <link><![CDATA[https://sharemania.us/threads/emma-bunton-free-me-2004-flac-44-1khz-16bit.222861/]]></link>
                <description><![CDATA[<article>
<blockquote class="messageText SelectQuoteContainer ugc baseHtml">
<img src="https://i.ibb.co/B2hZpPh/M0-Ave-Mi3-o.jpg" class="bbCodeImage LbImage" alt="[​IMG]" data-url="https://i.ibb.co/B2hZpPh/M0-Ave-Mi3-o.jpg" style=""> <br>
<br>
<b><span style="font-size: 22px"><span style="color: #ff4dff">Emma Bunton - Free Me (2004) [FLAC 44.1kHz/16bit]</span></span></b><br>
<b><span style="font-size: 22px"><span style="color: #ff4dff"><br>
<div class="bbCodeBlock bbCodeVfcHH HiddenContent">
<div class="attribution type">Hidden Content:</div>
<blockquote>You must either reply or click 'Like' to see the hidden information contained here.</blockquote>
</div></span></span></b>
<div class="messageTextEndMarker">&nbsp;</div>
</blockquote>
</article>]]></description>
                <author><![CDATA[ArDa3851]]></author>
                </item>

                
                <item>
                <title><![CDATA[【PRORES HD】Max Cooper - Repetition  [Master ProRes 1080p | PCM 16-bit 48 kHz]]]></title>
                <link><![CDATA[https://sharemania.us/threads/max-cooper-repetition-master-prores-1080p-pcm-16-bit-48-khz.222862/]]></link>
                <description><![CDATA[<article>
<blockquote class="messageText SelectQuoteContainer ugc baseHtml">
<img src="https://images2.imgbox.com/ba/c2/viB7qDl2_o.jpg" class="bbCodeImage LbImage" alt="[​IMG]" data-url="https://images2.imgbox.com/ba/c2/viB7qDl2_o.jpg" style=""> <br>
<br>
<b>Genre: <span style="color: #0059b3">Electronic</span><br>
Style: <span style="color: #0059b3">Ambient, Techno</span><br>
Year: <span style="color: #0059b3">2019</span><br>
Video Format: <span style="color: #0059b3">ProRes 4444</span><br>
Audio Format: <span style="color: #0059b3">PCM 16-bit 48 kHz</span></b><br>
<br>
"<b>Repetition</b>" is a track by London-based electronica and techno producer Max Cooper. It's the second track from his album Yearning For The Infinite, released in 2019.<br>
<br>
Max Cooper:<br>
<i>"I wanted to make something huge and intense for the new live show, so I went for a project attempting to visualize the infinite and its links to us in our everyday lives. For every chapter of the story I found a different technique to approach it, in this case, the simple idea of repetition. Apply it, and we have a form of infinity. This was also a natural fit for my music, where I had a nice excuse to push the repetitive boat out even more than usual. I kept it very stripped back to focus on the idea, with slow evolution and occasional variants to maintain some melodic engagement.<br>
<br>
Visually, I was lucky to get to work with one of my favorite artists, Kevin McGlouglin, where we told the human side of the story, our endless pursuit of growth and "progress", our duplication of built form and expanding cities, looking to an unbounded future of urban sprawl. It was an audio-visualization encompassing the project title "Yearning for the Infinite". But despite our society-endangering issues around human consumption and sustainability, it wasn't supposed to be a doom scenario. We tried that musically and it didn't seem to fit. There was a back and forth on the ideas and their musical and visual representation, and what worked was something that for me seems more focused on the worth of our endless striving than its possible role in our downfall."</i><br>
<br>
Kevin McGlouglin:<br>
"'<i>Repetition' is an attempt to convey the importance of our endless endeavors toward human development and growth amidst a chaotic and disorienting landscape.<br>
<br>
The struggle for a fruitful future is challenging with the distractions of everyday life alongside its ever-growing technological 'advancements'.<br>
<br>
The hope is for humanity to strive through all of this in a meaningful and positive way."</i><br>
<br>
<div class="ToggleTriggerAnchor bbCodeSpoilerContainer">
<button type="button" class="button bbCodeSpoilerButton ToggleTrigger Tooltip JsOnly" data-target="> .SpoilerTarget"><span>Spoiler: <span class="SpoilerTitle">Media Info</span></span></button>
<div class="SpoilerTarget bbCodeSpoilerText">
<div class="bbCodeBlock bbCodeCode">
<div class="type">Code:</div>
<pre>General
Complete name                  : Max Cooper\Max Cooper - Repetition.mov
Format                         : MPEG-4
Format profile                 : QuickTime
Codec ID                       : qt   2005.03 (qt  )
File size                      : 11.2 GiB
Duration                       : 5 min 56 s
Overall bit rate mode          : Variable
Overall bit rate               : 269 Mb/s
Frame rate                     : 24.000 FPS
Encoded date                   : 2019-07-25 19:58:55 UTC
Tagged date                    : 2019-07-25 20:04:34 UTC
Writing library                : Apple QuickTime
TIM                            : 00:00:00:00
TSC                            : 24
TSZ                            : 1

Video
ID                             : 1
Format                         : ProRes
Format version                 : Version 1
Format profile                 : 4444
Codec ID                       : ap4h
Duration                       : 5 min 56 s
Bit rate mode                  : Variable
Bit rate                       : 268 Mb/s
Width                          : 1 920 pixels
Height                         : 1 080 pixels
Display aspect ratio           : 16:9
Frame rate mode                : Constant
Frame rate                     : 24.000 FPS
Color space                    : YUV
Chroma subsampling             : 4:4:4
Scan type                      : Progressive
Bits/(Pixel*Frame)             : 5.380
Stream size                    : 11.1 GiB (99%)
Writing library                : adb0
Language                       : English
Encoded date                   : 2019-07-25 19:58:55 UTC
Tagged date                    : 2019-07-25 19:58:55 UTC
Color primaries                : BT.709
Transfer characteristics       : BT.709
Matrix coefficients            : BT.709

Audio
ID                             : 2
Format                         : PCM
Format settings                : Little / Signed
Codec ID                       : sowt
Duration                       : 5 min 56 s
Bit rate mode                  : Constant
Bit rate                       : 1 536 kb/s
Channel(s)                     : 2 channels
Channel layout                 : L R
Sampling rate                  : 48.0 kHz
Bit depth                      : 16 bits
Stream size                    : 65.3 MiB (0%)
Language                       : English
Encoded date                   : 2019-07-25 19:58:55 UTC
Tagged date                    : 2019-07-25 19:58:55 UTC

Other
ID                             : 3
Type                           : Time code
Format                         : QuickTime TC
Duration                       : 5 min 56 s
Frame rate                     : 24.000 FPS
Time code of first frame       : 00:00:00:00
Time code of last frame        : 00:05:56:11
Time code, stripped            : Yes
Language                       : English
Encoded date                   : 2019-07-25 19:58:55 UTC
Tagged date                    : 2019-07-25 19:58:55 UTC
</pre>
</div></div>
</div><br>
<div class="bbCodeBlock bbCodeVfcHH HiddenContent">
<div class="attribution type">Hidden Content:</div>
<blockquote>You must reply before you can see the hidden data contained here.</blockquote>
</div>
<div class="messageTextEndMarker">&nbsp;</div>
</blockquote>
</article>]]></description>
                <author><![CDATA[ADHDerby]]></author>
                </item>

                </channel></rss>